<?xml version="1.0" encoding="UTF-8"?>
<svg xmlns="http://www.w3.org/2000/svg" viewBox="-4.0 -4.0 103.0308 103.0308" width="96" height="96" fill="none">
<g>
<path d="M22.875 1H72.1558C74.2479 1 76.2484 1.82375 77.7259 3.31433L91.7165 17.3049C93.194 18.7824 94.0308 20.7829 94.0308 22.875V72.1558C94.0308 74.2479 93.2071 76.2484 91.7165 77.7259L77.7259 91.7165C76.2484 93.194 74.2479 94.0308 72.1558 94.0308H22.875C20.783 94.0308 18.7824 93.2071 17.3049 91.7165L3.31435 77.7259C1.83685 76.2484 1 74.2479 1 72.1558V22.875C1 20.7829 1.82377 18.7824 3.31435 17.3049L17.3049 3.31433C18.7824 1.83683 20.783 1 22.875 1Z" stroke-width="2" stroke-miterlimit="10" stroke="#012436"/>
<path d="M26.7584 68.2725C25.1632 66.6773 24.2741 64.5199 24.2741 62.2578V32.7599C24.2741 30.511 25.1763 28.3405 26.7584 26.7453C28.3536 25.1501 30.511 24.261 32.7731 24.261H62.2709C64.5199 24.261 66.6904 25.1632 68.2856 26.7453C69.8808 28.3405 70.7699 30.4979 70.7699 32.7599V62.2578C70.7699 64.5068 69.8677 66.6773 68.2856 68.2725C66.6904 69.8676 64.533 70.7698 62.2709 70.7698H32.7731C30.5241 70.7698 28.3536 69.8677 26.7584 68.2855V68.2725Z" stroke-width="2" stroke-miterlimit="10" stroke="#012436"/>
</g>
</svg>
